<svg width="144" height="144" viewBox="0 0 144 144" fill="none" xmlns="http://www.w3.org/2000/svg">
<path fill-rule="evenodd" clip-rule="evenodd" d="M26.6064 121.279C38.5433 132.281 54.4869 139 72 139C89.5248 139 105.478 132.272 117.418 121.257C126.55 104.918 114.775 84.5 95.7917 84.5H48.4484C29.4543 84.5 17.6015 104.852 26.6064 121.279ZM22.6349 124.413C22.7084 124.539 22.783 124.665 22.8585 124.79L22.9675 124.724C35.8224 136.684 53.0569 144 72 144C90.9354 144 108.163 136.69 121.017 124.739L121.13 124.809C121.213 124.674 121.294 124.539 121.375 124.404C135.304 111.275 144 92.6527 144 72C144 32.2355 111.765 0 72 0C32.2355 0 0 32.2355 0 72C0 92.6575 8.69958 111.283 22.6349 124.413ZM18.7005 112.603C10.1048 101.337 5 87.2648 5 72C5 45.0447 20.9181 21.8072 43.8668 11.175C35.9445 18.6506 31 29.2479 31 41C31 58.6779 42.1881 73.7428 57.8697 79.5H48.4484C29.7897 79.5 16.8688 95.8526 18.7005 112.603ZM86.1303 79.5H95.7917C114.388 79.5 127.231 95.8006 125.405 112.464C133.937 101.221 139 87.2019 139 72C139 45.0447 123.082 21.8072 100.133 11.175C108.055 18.6506 113 29.2479 113 41C113 58.6779 101.812 73.7428 86.1303 79.5ZM36 41C36 21.1178 52.1178 5 72 5C91.8822 5 108 21.1178 108 41C108 60.8823 91.8822 77 72 77C52.1178 77 36 60.8823 36 41Z" fill="#69707D"/>
</svg>
